<mxfile host="app.diagrams.net" modified="2021-12-20T06:02:57.779Z" agent="5.0 (Windows NT 10.0; Win64; x64) AppleWebKit/537.36 (KHTML, like Gecko) Chrome/96.0.4664.110 Safari/537.36" etag="wk2eL73e19bnRJhC0JJW" version="15.9.6" type="github">
  <diagram id="C5RBs43oDa-KdzZeNtuy" name="Page-1">
    <mxGraphModel dx="1662" dy="1931" grid="1" gridSize="10" guides="1" tooltips="1" connect="1" arrows="1" fold="1" page="1" pageScale="1" pageWidth="827" pageHeight="1169" math="0" shadow="0">
      <root>
        <mxCell id="WIyWlLk6GJQsqaUBKTNV-0" />
        <mxCell id="WIyWlLk6GJQsqaUBKTNV-1" parent="WIyWlLk6GJQsqaUBKTNV-0" />
        <mxCell id="WIyWlLk6GJQsqaUBKTNV-2" value="" style="rounded=0;html=1;jettySize=auto;orthogonalLoop=1;fontSize=11;endArrow=block;endFill=0;endSize=8;strokeWidth=1;shadow=0;labelBackgroundColor=none;edgeStyle=orthogonalEdgeStyle;entryX=0.5;entryY=0;entryDx=0;entryDy=0;" parent="WIyWlLk6GJQsqaUBKTNV-1" source="WIyWlLk6GJQsqaUBKTNV-3" target="Hxnug19n2UQT8viNkSG_-7" edge="1">
          <mxGeometry relative="1" as="geometry" />
        </mxCell>
        <mxCell id="WIyWlLk6GJQsqaUBKTNV-3" value="缓存校验" style="rounded=1;whiteSpace=wrap;html=1;fontSize=12;glass=0;strokeWidth=1;shadow=0;" parent="WIyWlLk6GJQsqaUBKTNV-1" vertex="1">
          <mxGeometry x="470" y="145" width="120" height="40" as="geometry" />
        </mxCell>
        <mxCell id="WIyWlLk6GJQsqaUBKTNV-11" value="返回实时校验结果" style="rounded=1;whiteSpace=wrap;html=1;fontSize=12;glass=0;strokeWidth=1;shadow=0;fillColor=#d5e8d4;strokeColor=#82b366;" parent="WIyWlLk6GJQsqaUBKTNV-1" vertex="1">
          <mxGeometry x="205" y="370" width="120" height="40" as="geometry" />
        </mxCell>
        <mxCell id="Hxnug19n2UQT8viNkSG_-2" style="edgeStyle=orthogonalEdgeStyle;rounded=0;orthogonalLoop=1;jettySize=auto;html=1;exitX=0.5;exitY=1;exitDx=0;exitDy=0;entryX=0.5;entryY=0;entryDx=0;entryDy=0;" edge="1" parent="WIyWlLk6GJQsqaUBKTNV-1" source="Hxnug19n2UQT8viNkSG_-0" target="Hxnug19n2UQT8viNkSG_-1">
          <mxGeometry relative="1" as="geometry" />
        </mxCell>
        <mxCell id="Hxnug19n2UQT8viNkSG_-0" value="实时校验" style="rounded=1;whiteSpace=wrap;html=1;fontSize=12;glass=0;strokeWidth=1;shadow=0;fillColor=#f5f5f5;fontColor=#333333;strokeColor=#666666;" vertex="1" parent="WIyWlLk6GJQsqaUBKTNV-1">
          <mxGeometry x="205" width="120" height="40" as="geometry" />
        </mxCell>
        <mxCell id="Hxnug19n2UQT8viNkSG_-5" style="edgeStyle=orthogonalEdgeStyle;rounded=0;orthogonalLoop=1;jettySize=auto;html=1;exitX=1;exitY=0.5;exitDx=0;exitDy=0;" edge="1" parent="WIyWlLk6GJQsqaUBKTNV-1" source="Hxnug19n2UQT8viNkSG_-1" target="WIyWlLk6GJQsqaUBKTNV-3">
          <mxGeometry relative="1" as="geometry" />
        </mxCell>
        <mxCell id="Hxnug19n2UQT8viNkSG_-6" value="否" style="edgeLabel;html=1;align=center;verticalAlign=middle;resizable=0;points=[];" vertex="1" connectable="0" parent="Hxnug19n2UQT8viNkSG_-5">
          <mxGeometry x="-0.7692" y="3" relative="1" as="geometry">
            <mxPoint as="offset" />
          </mxGeometry>
        </mxCell>
        <mxCell id="Hxnug19n2UQT8viNkSG_-29" style="edgeStyle=orthogonalEdgeStyle;rounded=0;orthogonalLoop=1;jettySize=auto;html=1;entryX=0.5;entryY=0;entryDx=0;entryDy=0;" edge="1" parent="WIyWlLk6GJQsqaUBKTNV-1" source="Hxnug19n2UQT8viNkSG_-1" target="WIyWlLk6GJQsqaUBKTNV-11">
          <mxGeometry relative="1" as="geometry">
            <mxPoint x="265" y="490" as="targetPoint" />
          </mxGeometry>
        </mxCell>
        <mxCell id="Hxnug19n2UQT8viNkSG_-1" value="判断是否取到实时校验结果" style="rhombus;whiteSpace=wrap;html=1;shadow=0;fontFamily=Helvetica;fontSize=12;align=center;strokeWidth=1;spacing=6;spacingTop=-4;" vertex="1" parent="WIyWlLk6GJQsqaUBKTNV-1">
          <mxGeometry x="210" y="130" width="110" height="70" as="geometry" />
        </mxCell>
        <mxCell id="Hxnug19n2UQT8viNkSG_-23" style="edgeStyle=orthogonalEdgeStyle;rounded=0;orthogonalLoop=1;jettySize=auto;html=1;entryX=0.5;entryY=0;entryDx=0;entryDy=0;" edge="1" parent="WIyWlLk6GJQsqaUBKTNV-1" source="Hxnug19n2UQT8viNkSG_-7" target="Hxnug19n2UQT8viNkSG_-8">
          <mxGeometry relative="1" as="geometry" />
        </mxCell>
        <mxCell id="Hxnug19n2UQT8viNkSG_-7" value="取爬虫数据（数据保存4小时）" style="rounded=1;whiteSpace=wrap;html=1;fontSize=12;glass=0;strokeWidth=1;shadow=0;" vertex="1" parent="WIyWlLk6GJQsqaUBKTNV-1">
          <mxGeometry x="630" y="210" width="120" height="60" as="geometry" />
        </mxCell>
        <mxCell id="Hxnug19n2UQT8viNkSG_-25" style="edgeStyle=orthogonalEdgeStyle;rounded=0;orthogonalLoop=1;jettySize=auto;html=1;exitX=0.5;exitY=1;exitDx=0;exitDy=0;" edge="1" parent="WIyWlLk6GJQsqaUBKTNV-1" source="Hxnug19n2UQT8viNkSG_-8" target="Hxnug19n2UQT8viNkSG_-15">
          <mxGeometry relative="1" as="geometry" />
        </mxCell>
        <mxCell id="Hxnug19n2UQT8viNkSG_-26" value="爬取价 &amp;gt;= 报价" style="edgeLabel;html=1;align=center;verticalAlign=middle;resizable=0;points=[];" vertex="1" connectable="0" parent="Hxnug19n2UQT8viNkSG_-25">
          <mxGeometry x="-0.25" y="1" relative="1" as="geometry">
            <mxPoint as="offset" />
          </mxGeometry>
        </mxCell>
        <mxCell id="Hxnug19n2UQT8viNkSG_-31" style="edgeStyle=orthogonalEdgeStyle;rounded=0;orthogonalLoop=1;jettySize=auto;html=1;exitX=1;exitY=0.5;exitDx=0;exitDy=0;entryX=0;entryY=0.5;entryDx=0;entryDy=0;" edge="1" parent="WIyWlLk6GJQsqaUBKTNV-1" source="Hxnug19n2UQT8viNkSG_-8" target="Hxnug19n2UQT8viNkSG_-9">
          <mxGeometry relative="1" as="geometry" />
        </mxCell>
        <mxCell id="Hxnug19n2UQT8viNkSG_-32" value="爬取价 &amp;lt;&amp;nbsp; 报价" style="edgeLabel;html=1;align=center;verticalAlign=middle;resizable=0;points=[];" vertex="1" connectable="0" parent="Hxnug19n2UQT8viNkSG_-31">
          <mxGeometry x="-0.2308" relative="1" as="geometry">
            <mxPoint as="offset" />
          </mxGeometry>
        </mxCell>
        <mxCell id="Hxnug19n2UQT8viNkSG_-8" value="判断爬取价（官网价）和报价（原始价）" style="rhombus;whiteSpace=wrap;html=1;shadow=0;fontFamily=Helvetica;fontSize=12;align=center;strokeWidth=1;spacing=6;spacingTop=-4;" vertex="1" parent="WIyWlLk6GJQsqaUBKTNV-1">
          <mxGeometry x="640" y="300" width="100" height="80" as="geometry" />
        </mxCell>
        <mxCell id="Hxnug19n2UQT8viNkSG_-9" value="有座位&lt;br&gt;返回校验成功，座位数不够返回座位不足" style="rounded=1;whiteSpace=wrap;html=1;fillColor=#d5e8d4;strokeColor=#82b366;" vertex="1" parent="WIyWlLk6GJQsqaUBKTNV-1">
          <mxGeometry x="940" y="310" width="120" height="60" as="geometry" />
        </mxCell>
        <mxCell id="Hxnug19n2UQT8viNkSG_-21" style="edgeStyle=orthogonalEdgeStyle;rounded=0;orthogonalLoop=1;jettySize=auto;html=1;exitX=1;exitY=0.5;exitDx=0;exitDy=0;entryX=0.5;entryY=0;entryDx=0;entryDy=0;" edge="1" parent="WIyWlLk6GJQsqaUBKTNV-1" source="Hxnug19n2UQT8viNkSG_-15" target="Hxnug19n2UQT8viNkSG_-20">
          <mxGeometry relative="1" as="geometry" />
        </mxCell>
        <mxCell id="Hxnug19n2UQT8viNkSG_-22" value="F9&amp;nbsp; &amp;nbsp;缓存在5分钟内" style="edgeLabel;html=1;align=center;verticalAlign=middle;resizable=0;points=[];" vertex="1" connectable="0" parent="Hxnug19n2UQT8viNkSG_-21">
          <mxGeometry x="-0.2512" y="1" relative="1" as="geometry">
            <mxPoint as="offset" />
          </mxGeometry>
        </mxCell>
        <mxCell id="Hxnug19n2UQT8viNkSG_-33" style="edgeStyle=orthogonalEdgeStyle;rounded=0;orthogonalLoop=1;jettySize=auto;html=1;" edge="1" parent="WIyWlLk6GJQsqaUBKTNV-1" source="Hxnug19n2UQT8viNkSG_-15" target="Hxnug19n2UQT8viNkSG_-16">
          <mxGeometry relative="1" as="geometry" />
        </mxCell>
        <mxCell id="Hxnug19n2UQT8viNkSG_-34" value="F9&amp;nbsp; &amp;nbsp;缓存时间 超过 5分钟&amp;nbsp;&amp;nbsp;" style="edgeLabel;html=1;align=center;verticalAlign=middle;resizable=0;points=[];" vertex="1" connectable="0" parent="Hxnug19n2UQT8viNkSG_-33">
          <mxGeometry x="-0.3228" relative="1" as="geometry">
            <mxPoint as="offset" />
          </mxGeometry>
        </mxCell>
        <mxCell id="Hxnug19n2UQT8viNkSG_-15" value="判断缓存是否过期" style="rhombus;whiteSpace=wrap;html=1;shadow=0;fontFamily=Helvetica;fontSize=12;align=center;strokeWidth=1;spacing=6;spacingTop=-4;" vertex="1" parent="WIyWlLk6GJQsqaUBKTNV-1">
          <mxGeometry x="640" y="460" width="100" height="80" as="geometry" />
        </mxCell>
        <mxCell id="Hxnug19n2UQT8viNkSG_-16" value="取原始数据校验，由于爬取时间(&quot;+seconds+&quot;s)超过限定时间(&quot;+verifyLimitTime+&quot;*60s)，校验失败！&quot;" style="rounded=1;whiteSpace=wrap;html=1;fillColor=#d5e8d4;strokeColor=#82b366;" vertex="1" parent="WIyWlLk6GJQsqaUBKTNV-1">
          <mxGeometry x="380" y="630" width="170" height="70" as="geometry" />
        </mxCell>
        <mxCell id="Hxnug19n2UQT8viNkSG_-20" value="判断价格，座位数，&lt;br&gt;价格在涨幅范围内，校验成功。否则校验失败" style="rounded=1;whiteSpace=wrap;html=1;fillColor=#d5e8d4;strokeColor=#82b366;" vertex="1" parent="WIyWlLk6GJQsqaUBKTNV-1">
          <mxGeometry x="780" y="650" width="120" height="60" as="geometry" />
        </mxCell>
        <mxCell id="Hxnug19n2UQT8viNkSG_-36" value="" style="shape=image;verticalLabelPosition=bottom;labelBackgroundColor=#ffffff;verticalAlign=top;aspect=fixed;imageAspect=0;image=data:image/png,iVBORw0KGgoAAAANSUhEUgAAA0oAAACDCAYAAACz1esMAAAgAElEQVR4nOyde1xVVfr/P8CBw+WAHDxyFZDDaERoEJCF/hRNsqBRMyNrZlJTy3Gsr1YzaV8qK8bLTE2NNY5TNmozNcZoXibpQqPmV2wUCFQyq+EoKCCIgFyEAwfO74991mLvffY+HPCCl+fdi5B9WetZl733etbzrGe5bDvXYU0EcHZrJhJPPI2KZ+8A8B+8NfgPCD+ag2mhuKHxQTNa4TvQYhAEQRCEPVWb8cTIR/EpAOBlbDu3DIkOLi96LROnHsnBtNAz2P7YU0C27TtfuBJPlM/BXx4IVrnzP3jrsZOY+deZGKJ4/gy2PxaBp3Y4yHzZPtsYQ3Q93keRLM2zWzORhTUOZIFQ7iwgW1UelscGhP91Dk49FoFTCzvwZJLtVOFKREyGUF9Vm/HEyBN4/NwyRCjkzeW5cy+/zlEd9wl5Oao244kPh+EvfCy2Byk8P1aenvzPbs3E5sicnnIptNPZrZlIfBxYczQH06pWImLvBFQ8clLoN5I2kVL0mgfuh/p5grgR0LCHbcgDOajgh+/Ak+dyBkYigiAIgiDUKVyJiMkvCf+e+j6KznXgLwCEgbUH7pdcLChPEVszkfj4duHvZwEUbsBTsU+j4pJOhjpQ1ApXImKv+MBJnBIrSeIyYRrWHHWgJPWJl3D/4Jfw689FShIAJC1DxecrETF4JbadW4a/nLMdj0zAp5MjEPG4OA2bPKEze667XITOxF9SVyJi8Djh72X7RGMzgJVHigd+L/5z6vuYCZuisxK4950KVHy+AREjPfAUgHvfmQOE3oG/nJsp1PvgcTIlViDx2Q5Z3gRx4+FSca7DOtBCXM2QRYkgCIIgiGuD3ix/BEH0BVKUeoEUJYIgCIIgCIK48XAdaAEIgiAIgiAIgiCuNkhRIgiCIAiCIAiCkEGKEkEQBEEQBEEQhAxSlAiCIAiCIAiCIGSQokQQBEEQBEEQBCHDxWq1UtQ7B9TX1yMgIGCgxSAIgiAIgiAI4gqiMZvNAy3DVQ/VEUEQBEEQBEHcWJDrHUEQBEEQBEEQhAxSlAiCIAiCIAiCIGSQokQQBEEQBEEQBCGDFCWCIAiCIAhVarD5ZzOxuVJ2uHIzZv5sM2oGRCaCIK4EpCgRBEEQBHFVUPPRZhzs+UtZQcFBrLIpKDUfzcSqQ+zaVbZ7D2KV5ypROuL02fV9IQgzfzcN26NFslRuxszok1jywUwE9TU5giCuGVz7/sIgCIIgCIK41NTgJE7iDU+mkARh5v/EY/t+m83m0Cp4rlBSf2SpfPQGlmM5xnt6wpP/CGkGPfRHDPujp6AsHVolOm//I4yPDmKVpyc8o2djO7ZjdrTtfPRsbOd5KClzBEFcD7guvX2gRSAIgiAIggjC6IeWYnP7H4Hf2BSSccuxfVakoLh86UwaB7FhVjw2bpqGaZvK0d7ebvvZjJlhQh4zP/gK+ONm1Ny+VHS+He37lgMvfsX/5uOjBzainF/3FZZjOb7if5dj4wOXrUIIghhgyPWOIAiCIIiBp3IzZq44CEGZESkwZRsx7cWvsHRS70nsWTEe2LcUE8YuwbSdkSrWntFY2heXua2zEcktTeNl1qpIzN7ap1ISBHEN4eqMGZsgCIIgCOKyEjYTf4x+A56eq3CwcjNm2tYZ1ezfDkQPU7wl6KHNNstPEGZ+sBRLnxcsQUFho23K1hKcZGuLRK52fVp2QBYlgrhhcW1/fvRAy0AQBEEQBIGghzajvX0pRofNxOZ9wPgVB3GyDJg2Vt3+c3CF+jojT8/xKNn0R8HtzuZq99WLfRSKLEoEccNCrncEQRAEQVwl1ODgIVvwhtvnYOO34zH+22mYEObonmnYWNYuXW9k+ynfNO3iRSKLEkHcsFDUO4IgCIIgrhJOYs8f99j2JgpC1C19vL1yM2Z6emLmR07sblS5Gat6va639UxBmPkBCxRBEMT1BkW9IwiCIAji6uDQHpRMmSAoJodWYTy+wle3zMaGQxBc53pZLlCzfzu2Kxw/uEK2LunEZsyM3o5hDlz6lMOHy13v5OHECYK4niDXO4IgCIIgrgoOfrkc8VFBgpIyDvjq+dEYPWsjSsYpbyALAKOf34yZYcJ+R5FlSyTudkEPbcbmh4AT307DMJHVZ/msk1jS3oslSB4+XNH1rt0+nDhBENcNrp623a0JgiAIgiAGjoPY88pyTLj9IFaNA75qX4rRABA2E5vbl2K0za3O03M8lt8ShSD+tyc8PfdgQns72p8fjaCoeL73Eg+4ALbOqQYnvl3ek7Y4jXHLsXwSBbgiCKIHl/b2dutAC3E109raCh8fn4EWgyAIgiAIgiCIKwi53hEEQRAEQRAEQcggRYkgCIIgCIIgCEIGKUoEQRAEQRAEQRAySFEiCIIgCIIgCIKQQYoSQRAEQRAEQRCEDFKUCIIgCIIgCIIgZGi0Wu1Ay3BV09raCqojgiAIgiAIgrixcMnKr6R9lBywJMYTbxxvH2gxCIIgCIIgCIK4gpDrHUEQBEEQBEEQhAxSlAiCIAiCIAiCIGSQokQQBEEQBEEQBCGDFCWCIAiCIAinqUXpC2tweqDFIAjiskOKEkEQBEEQVw0tefOx/1vZwdpt2DJGppzUbsOWMWHItv1syauVpJH9wja0OJVjLUpfmI/S2lqUviBKR5a+JA9jOPz7XUKCIK4VSFEiCIIgCOLqJvB+3LP8KDZuKJIcm5Ffiaz8Sixeno7g0EDheO02fLZ8JGbPPIU3nVKWAuFvFH7HvVqJO07/L0prRem/8xxilhcjK78SM9ICL0fpCIK4StEMtAAEQRAEQRD2FGH/mCnYKzmWi+z1AJCOadvexbDD81ES+i7i2elv1yD7cWB2/lMYCiBr5hpkj1nD/1ZO08b6MGzn/54PbHsXcRK9qBalLyRg+252zaKeU/N2ImtO4sUUliCIqxBSlAiCIAiCGHhqt2HL/YtwHAAQhr0T38bi/EqMdXDL6dOA/61A4yHAH2uQvS8ci/Pvh45dcMtTyMovwv4xYTj5TiXG3gJg4ttY/KroGgCnN8xHY4ZcMZIjWJziXi3C/jH5GMaUr2/XIPtQ/4tNEMTVi6YFkLwsCIIgCIIgrjiB92NG/hiUvpCA43gOMU/eD53NinN8XDFmpAXi9IYwbISK9ebWp5CVJqwz4lYfAMBzmJ1fabMoKeM/FDh5FkCgsL7pM/zWsZvdRFqjRBA3ApqTtehlBoUgCIIgCOIK8G0+Go3pCL59JvBWGLJ3p2PatkrMsI1Ths6pRNa3a5A9Zh2mbfstYMrF9vvDhJPr18A//ymb1cdBHrsX4c3dPW5zqe9U9rjuoQgly0fijnwHA6PaCpy5iCISBHHtQMEcCIIgCIK4CijC/s3AsKEAc3PLyv8t8NZ8IbgCYHNzG4Os/HcRF8iuqURW/k6kTgyH/7drhMh07DdkUfRqK3DG5tKXlV+J2fOEw7rQkThTVYvTG6bgzPKZDq1POHsKx40R5I1DEDcApCgRBEEQBDHw1FbAf+b9Mpe2QMTNHIntb21DC4qw/3FgttjtjoXw3pAv/H3LGATvy0fLkHBgXz5abBaiYbfYrldTcoaEA8sTsNH0Nu5RcLk7vjzBFh68CKWbVyP1dqnrX8zQ8IsrO0EQVyWuw8jtjiAIgiCIgSbwfsTdonD8lqcw27gIb46ZArzzVI+159s1yH4LuCe/ElkZ4TZ3uHD4IxcnMQYxyMXJvHyJhail6qhIqalFoykd/kNYgumY9qQQ5KElbz7277cpYY8fxbRtggVqRmg+tuNtxIvkbKk6eokrgiCIqwVXMh0TBEEQBHG10pI3HxvXC//e+7jIDe+Wp5Ali14nuOwxt7zfAvuAO7iFqBYn9wExtwKlL4Qhe0wCtiMdwyBE2wuexyxXQONpwH8E26fJFg2PhR63y5MgiOsVCg9OEARBEMRVx+kNYdi4HrbNXt+1HRWi2glBHt5F3Nk1yH58NQAg9Z2dKBkTZr9H0u7VANIxbX06jhsXYEZgIMACPtRuw5b7cxGzrRJxgcDYb9cge0wYgOcwe44oDdn+TC158/Hm8lzbyecw21HwB4IgrllcsvIrrQMtxNXMkhhPvHG8faDFIAiCIAiCIAjiCkLBHAiCIAiCIAiCIGSQokQQBEEQBEEQBCGDFCWCIAiCIAiCIAgZpCgRBEEQBEEQBEHIIEWJIAiCIAiCIAhCBilKBEEQBEEQBEEQMjRjfc4PtAxXOZ6gOiIIgiAIgiCIGwuX9vZ22kfJAa2trfDx8RloMQiCIAiCIAiCuIKQ6x1BEARBEARBEIQMUpSuMHvL3xtoEQiCIAiCIAiC6AVSlK4ge8vfw1flfx1oMQiCIAiCIAiC6AVSlK4QpCQRBEEQBEEQxLUDKUpXAFKSCIIgiCvDQazyXIWD7K8VM7G5EgBqsPlnnpj5UY3CPTXY/LOee3BoFTw9PSU/qw6pZHdoFTxXHFQ5qSLhCjU5+knlZsyUy6AiV81HM+3KpvTTI99BrHLiek9PoZ77nr5d7Ujar1euhvoniOsYUpQuM6QkEQRBEFeMyhMoeXECRgMAanDi23hEhQFAEGZ+0I4/4n96H1jfvhTt7e38p3zTtP7Lo6B0jX8F2D4rUna8D8qBiJqPZsIzeja2vzJeqtDdPgcbv33DpiT2EPTQZknZFH/2LZfe9MBGlMvqY/k++X2bMTNMuNz+XPulq8++cpnrnyCud0hRuoyQkkQQBEFcSWr2b0f8pNG2v07iJIZhmOh80EOb0f48Oy9YmTw9IzF763KM7++A2aakqA28p20qlykLX2G5TPlob1+K0Q4zUYcpJl+9COBLphhEYvbW7ZgdLZKncjNm9mbt+dlmKNtaWF15InLWdiwf56TFrRcLkb0FajyWg7WFMxYoDHj9E8T1jGagBbjasVqt/Kcv7Du1QVVJ6u7uvhSiEQRBEIQE03+3Y/ksT4htIsu3zla89qW9F/Dc3y4g8281+OjnGzHs788Jg+VT/8BDw+dgh+Tabih+urqtwAt7cGGZwjC7uxvd3VZYrd3o7q7GRz9fDKz+Bx4K64bVakV3dzeqcx7GYryJf2QG9au83VYrrKZ/4KE3gWm3ANa7foMLS3+jev2HFzJ7T/TQapvM3QB6ZLVap2LDj//AQ2HSy2tyHsbGbqF+uq1WWLu/xkrPCXhZdM1yT1uLTN+APVOssEJIf8iDH+LCg+LUDmK1916kXnjOTnFRHDsMcP0T1w8uLi6S34SApgYAPR7KMAWpq6vL9pJ0TmHKr3of+09vUj3f0dFxKcUkCIIgCABAwjONaHxG+Hftlkfx/rD38WyS2tUdED5HnbB0d8HS0QHhTwus097FDxsfRCBLx8KulWHpAros6t81Sxeslk6c/vBZzPl4J6akn8b9Myzo6ragsyMf78/egR0YifxpzyKZ3VP1Tzwa+y/89Nj7eDDUcXk7LVZ0Dbsfm/4KFPxuDsosHeg48Br8J2Xza7K+bBTVQQFe809Dtl1KU/Auy88ms1AmJmsnLN07MH+4N+YoyJH1pVA/nRYruiwJeLaxEUtYfrNP4lFbXQJA7ZZtsKJTpc4s6IKoLXrjctQ/cUPh4uICFxcXuLq6wtXVlR8jBFw2lrVbZ4b1fuGNBlOKvj65Ffk1G9DWeX6gRSIIgiAIp1Gd2HMR/ucCKxQvcen5h9JwyQor4GjOkKfPrxadsIp+91xntVoBF9E9Voj+VkNBfhdbuVi6tvxcpHf1cqznfvE5KNwnv1eetqSuXOTXqNS/GuL7L2v9EzcSnho/jAudh1sD74W7uzvc3Ny48kTQGiWHdHd3Y/+Zv5KSRBAEQVxjWIXxsG3Awwc+kkG07Di7TjE1q3RsLktXkocdLrb/wH/3HGfJyY47NWiXyn15Rvky5Ujkjs+9TFSUFq6ourjAxcV2r0x+u7rrqRD7upXcejnrn7iRaLc0YV/VepjNZnR2dtLyEBm0RkkF5r/bZmmilwdBEARxTcEsMlLriLXHoNBzJazsABvIX8KPnpX/VlIoRIrDRQ3URWWAst4isfRYZXlzGRzn4gIXWF2YPaanIu1vU7KIucDFxaZYqeTDrDqCgEy+i1Ngrkz9E9c67ZYmmM1muLm5QaPRwNXVlSxKNjQTyO1Olb4GcCAIgiCIgcYKsRuV4IjGP2eyAbGdlUichvXSDaRd4CJREJTc3yRnnXK960ndsS+awuVOKiBWhb+sshq02qVlsyApZOziYq+icSWGu9Yx+WxWq0ugxPSt/okbEWZNorGvFA0FclCHOgtBEARxLaG6RsaRLsFdxHoOyQfWSveofiGv5OjbVja2MknZaialT+oBT0tq4RGv8LHKlSVHddMjBCQKYS+KlZ3ieLXUP3Hd0N8oz9c75HpHEANIfEg6UqNmY+fx38NUX6B63eKUHAzSBsPUUIibh4yzO19WfwjvFS287uS5FpibuBYAJOVVOsaYHpsFvVeo09fLz02KXoD4kHvx3dl9uGPoDLR2NiCn9CWH7XWtoNb/FqfkoNlcJ6mfxSk5CPQxAgDMlgvYcXwVSqpzER+SjqkxS3G05gt8fMw+tpm4PpXagjE9NgtJYdKNQQsrt8PU8A3uGb4In/34Nkqqcx2WZ27iWjS0VUnkmBS9AKPDZ2DX93/g90+KXoDxw2bBzdUdgPT5mZu4FkN8htm18RPJ7+Hg6a0w6m+D3isURVWfIDVqNvaaNmLST55AcVUuvixbJxmEL7rj7zhetx9WqxXjh82Cxs0DPd5ewsC7yVyLb6p34c6hD0Gr8ZaUh7viiBSRru5OfHVyk5CXjcV35qC5ow7vFf0S3FFNcewl5Dk9NgsR/qPw5tcPidZOOaxafj8P3tCjuUgUCh6ogP3hIC2JjMxHT5y+i6wsLuxXj7IkHHCsilnFapYT5VRUWh3k0ZN+j4bsqP6dSZO4/iElSRlSlAjiKoUN+LQab5TVH8KbBzIxPTbLTglhA7+rXR5jQDIy416Gn1YIkttkrpUM/uYmrkV0wO0AhAEpG1yqDYjFKA2k40PSkXHT0zh4agsfxMkHv87mIz4nvscYkAxfrQF7T2yUlFN+TCwnS+fVu77mA8yiqk9wz/BFiA9Jl5TNUVrfnd2HXd+/rljX8vpkiAe1SgNweZ0tTskBALx5QH3vmcUpOfDU6Hg64jKKYXWaGHqf4sDfEXtPbETGTU9jUvQC3pZMJqZcNZnPAgBSo2bjTMuPGGFIwfTYLImSEh+SjmDfETh4aotT+da2mng+rF8b9bfhbOvJXpUkNb4sW4dI/1FIjZrN0/iybB0vF1OuAEGBCvYdgYrGI8iMe1lSZwdPb0Vq1GxUN/8IL40fV97gAli6zTjR+I3qGgMXFxfUtprw9sGfS44zJbysvgB5/7V/jtX6w6ToBXj1rq+5ogcAgTBiRVqRYv4nGooQ6nuznSK2Mq1Q8XrxMycriROKlfK5uYlr4as1iMqidJ1S+sqWNnbl4pR/2r2L1K5VPe/C0lJ+J/V6v0hN5KuoSAMiiH5BihJBXEGUZqkBYF7inyV/s4FBSXXuZVWErqQ8E6Lm4GzrSazal86VpglRc2CqL8D02CwM9YtDTumLMHhHYEzEI2gy18FPawAAPJ8nbIKyOCVHMsBkxwJ9jGg21/FjTKnTiAZu8SHpGGFIQU7piyipzsX02CyMDLobpoZvYNTfpprP3MS18NTosL7olzDqE7lsdRcquOKYGfcKMuNeQVn9IZQ3HsFgr3B+DOixEFi6OrDbtB6mhiJMj81CfMi9mGicx2Vk9zAlckLUHFQ0HoHBOwKLRv9dMrCdHpuFAC9hkalc6WTIjwvtPQWmBuUBbF+ZFL0AnhodAMCoT4SpvkCiwChZdhJD73MqbSVFb6JxHiYa56G21YS9JzYiNWo2Ciq3AwD8tEOwdFwuzraexHtFC3kfm5u4lg9aU6Nmw8fdn6fDWCEaoLMBqVgOhrubF6L0CfDTBkruEStUSognGcSsSCvkymuk/yiuIAHg/ZMNjqfHZuEXt77OZWPpiZXSe4YvQkNbNQJ9jJJnuLr5ewT6GOHm6o5QvxjUt1VikKwMjCZzrWIZJkUvwCBtMPIrPrQ7J1f0pAqIY5hy9vGx7CtmFWV9q7bVdEXy6w/TY7MAOH73EQRx+SFFiSCuIB8fy7ab4VZzdZMrMS9N2AdTQyGiA263G+CU1R+6KuURD5rEM6ym+gKcbT2JIT7DYAxIht4rFOfNZ1BSnQtjQDKSwqYg0n+U3axsReMRjAy6G/Eh6Wgyn0Vm3Mtot7RIBjzMjemHc18jwn8UP15SnSsZZJgavsHIoLth1N9mN1stzsdXa0C7pQWm+gL4aYcAAPy0BtRdqMB58xnsPCzUFRtQxxjGSlyRmHsXIzogGfEh99pk+lTisiQmPiQdGlctPj6WjSeS38N5c62kngsrt+O1Y1Ml9yhZ1sQ0mevg5urBy3GxRPqPwtnWkwCAuKCJqmVxBvHs+bzEP6OwcjsfJCoxKXoBLF0d8NL4ARCUhB/qDvC2NNUXYNW+dMxNXIul43JR3fwjV3jFiqOa6x1TnsX4ewbDx13PJw7U7pe70o0wpOBvh59xqAgsGv13lJuPINQ3BhofLfReIZJ7Pj6WDVPDN1z5fHnPOEyKXoAYw1iE+sVwt8CpMUu5fHK3zUWjBdc7QOincouSGuyZPN1U6rCNhWc5DM3mOkUlDLB3y40LmghTfYHEsiyW2RnmJq7FUL84RWuzHGYBLW88DC93X6fSnx6bhYSQDDsXw95g/aC4ehc+PpYt6eOsHuTPrFr5xe8kg3eEnfsmQRCXB1KUCOIq5eNj2Sg58zky416Gj7se+RUfOvWRnhS9AGMiHnH6+sspj6PBjlgBmRLza24RMtUXoN3SAl+bNUmM3isU5q4WNJnP8oEw0OMSBPTMbseHpEsUJTkG7wgAgvLgKB/5AEXtHuG+MLR3Njusl7L6Am5RAqSWE7FrnFF/GyL9b8WKtEKJ61F8SDruGb4IpoZv7NLubRY/0n8Uuro7uJvaxcAGxSXVn6LuQoWi62BfYK6cI4PuxrkLFVwRYVYVZmlU6neWrg6sOpCO6bFZiko76ycXy1C/WJxuOsb/1nuFSqxAjC/L1sHUUITMuJcBAIWVOwFAYvFy5NbI+ojYVRWQul9Nj83CCEMKTjQUo7PbjAj/UfDxCMB58xmumPtqDahoPNJruRan5KCi8YiKexswJebX0LrpoPcKw0Mjf4sQ3+GKcscHT4al24y/FMyVHGfWPQDYc2IDPz49NgueGh1Kznzeq4yOeK9oIbfaZca94tDCJ3WldE5REr/7JhrnqVpwxbC1aFuPvapomR4/bBamx2ahovEIRhhSYAxIBgD+TMkRv5NKqnMv6budIAh1SFEiiKsYoz4RAFDTUoYYw1gkhU2RDJwYamt3rlZ5psdmYZA2GDuOr4IxIBmeGp3EdU6JSdELMNQvDvkVH160i46jGXJ5PiyvzLhX7IIGDNIGS1ycyuoPoaGtCotTcuwGanMT1yLULwahfjGYiHno6u7k55gitGj03/kxNjjz0w5RrMd7hi/irn1q9e2nDZTIx64z1RdgQtQcu/MAJHI5rENbXzA1FMFUX4DUqNkw6m/rdx80BiRjiE8UzpvP4OyFcqxIK0Rtqwkv7+kJFsKUh7igiahoPMLrEwB3sVMb7KutnQKgqFyJFaCGtirovUJRXL0LTeY6hPiOAAB4afxQblZWRG4eMg6W7k6cOl+KpLApGD9slsQiwRTDV+/6Gkdq8qDTBnB3wMHeEai7UKGq4E2KXoBQ3xis2icoh5ZuMyoaTwAAjtZ8idFDH+ADb7FCrXHzwETjPJQ3HkaQLlpS7kAfI7cYixXzuYlrMUgbjP0VH2Bk0F0oqNyOCVFzJGvsAEGBHxl0N043lUpkVXPBFF8/IWqOXT9ksvXm1sgQW4xZvfbVAuQI8cTMpOgFmJOwhluK5Hhp/DA6fAYOntrCreRDfIbhbOtJ/k6JC5rIg3CMMKTATzuET8TIXWMv5buPIIi+QYoSQVwh5O44YuSDBEAYrLi7eaHFXI82SxM6utpxvG4/t5aoRd4Srxe4GuSRI3ZjYde2W1qckrW4etdFD3zY7Ha7pUXVZUqcD5v5fz4viQ/6jPrbYGr4RtH1jllC5MrSe0ULueuT2KLkiCkxv0agj5ErRGKcsZT0NvMtP8+COThDpP8oBHiFKfaV/jAhag4udJ6Hl7svCiq346Oj/yupR2NAMqbHZqGwcidvG/FgvqWjAYtTclBQuR3JYdN4AAzmSiofbLN+wCw8ctTap+5CBeKCJiI+JB2d3WbF9V7xIekYPng0ms116Oxq4+vyWJpflq3jkd5e+PeddvemRs3GTYYxSAy9jytp7xUtlETRE6chLhsLADIm4mFoXLVoMp/lbrNd3Z3YbVoPP60BXu6+/D41i9L02CwM80/AVyc34dyFU/z4e0UL+bPCXGRTo2ZDq/GGl8YPL03YZ7ceKylsmkQRi/Afxa9xNgIkK5/Y0sZc2MTrwGpbTXb12hfESjVT1MT5NplrsaH4KdXnarB3BM5dqECkzKKt5KZcUp3LJxkEC2WlJN1L+e4jCKLvkKJEEFcIuQKjFJVNTHxIOkYPfQBtliYAwN9KnsbcxLWSDy1b/O/srOtAy8PWEjB3FEazuY672jELE1v70t/1AUqwwdTpplK7gZhSPsxqdLTmCwA9g5oI/1GKrm8Mtj5EabAdH3IvBnuH87/lVgmtxgfPjt2BpvZaDPYKV4z4tTglBw1tVXzwJl6bcyWID0nHUL84O5dAeWS6vtDR1Q5TQyEGew/lx0rOfM6j17FBpCQMdUoOBnuF47y5Fg1tVWg21yHINsBlA89mc53igJYFF+noaleUWRwNkSkL7JqxEY9gZNAkXOg8r5i2wTsCP547iGBdND/GLAlJYVPQZmnCCEOKEKXOBhsQt3Y2oN3SgsrEJWgAACAASURBVNNN3yI5bBrOtJRB7xWGMZGPYIjPMBRVfWI3ycGeQdYeQj7ThHVLtnzFFku9VygsXR0ShYZZlNizOzdxraTc8SFSpVzsXvjkHR/A0tXB1yaKrYBK6x7Z+rL+rK0UW3YYfVmj5Azyd1df30Gnm0pRVPUJfx6YMq0Wva+i8Qi3AIrd7i7lu48giP6h0Wq1Ay3DVUl3d7dqaFWCuFjiQzKQcdMSrpTI/waEwdbppmOSwRYb3MeHZOCe4b/CZz/+CSXVuyRp92eN0uWUh8Ei2+04vtpuMNPQVoWhfnGID8mAwTscWjcdyhuPYFL0AowMurufAwXp82sMSMY9wxcpKklq+YgVI1bOQdpgm3uR4/eDfHG2MSAZGjcPFFfnIiEkHRpXd2g1PvBUWVBuaijCO4XzAdiHZa5oPMJn6NVDJ/cH5955LNCBqaGYH2syn0VXd4doFr1v78+/lTyN+JAMyTFTfQEKK3dyBSKn9CUhf5GC+OaBTF4/DW1ViPAfxQeelm4z9p7YZJeXODQ6AImlRwyTZ+uxbEyKfpxfU9V8nA9glRBHgBPDFvRnjHgahZXbJa5iIwwp2FD8FIz6RMSH3IvWjvPQuPZ8n+MC75KEJY8LmsiDALD72VofcfAQJXy1Bpy7cBoaNw9uEQXAg0NMj83CEJ9hMquJfXvKlRbliJj297FJmksV0fNy79kmD3rjDCXVuUgMvY8HOTnbepKvRfLTBmJqzHP8XWRqKMbIoLth7mrhStXFvfsIou94eHjAw8MDWq0WHh4ecHV1HWiRrgrIotQLpCoRlxqmVOz6/g2UVO+SRJObaJzHXVnUBlvXkjziqHfM1SYz7mW+sJu5fn18LBt6r1DR4vftfCCl1XhLwjkL62xWqypkahj1ifBx18MvINAuepzeK1Q1n53Hf4/MuJclayYEV58MxTVKctiCeqM+ERpXLU40fIMTDd/YFMdYaFzd7dy3LN1m1F04xQM9yNeMiPebKjnzOZ4duwMl1Z9KBs+XikAfo10obAC2KIU9bcAiGTKF1xHytVGsH8iJD8nAmIhH4ObqDj9tIKbE/BpvHshUtCoAkAxmmRVKLGN8SAamxjyH8+Yzkvs/PpbN1z4xZdQYkIxJ0Y+jpPpTlFTvQpO5Fn7aQL7ZcnH1LowfNgt+WgM+PpatOLkgZ27iWu7SlRCSgSZzHb4sWyeRm639ajLX4rX9QlTD787uw5SYX2PviY/5dczqw9qmq7sTNw8Zx5+hXT/8AZOMC+zqJcR3BHw8AnC05t8w6pPsXCdrW01X1Dp5PbPnxAZkxr2M6bFZPIAHq2/2HgGAkupdSI2aJbF+Rtrel0rvJIN3uC3q3Rt9fg8SBNE3XKy0Da8i3d3d6OjowCv/N3agRSGuI9hATey/L3dTk/vos78b2qoU9zxi9MeycLXJcy0RH5KB1KhZ3KVIXE/2G0WuhlGfwO9l60Us3Z2SRe5MCWoy16K6+UfovULs1kf0rMnoaTtnonBdC7A6/fHcQdwxdAYs3Z0SpZgp8bWtJq7AsjUjDW3ViPS/VTFdptwJAUTUlWxx+gAk63aU1jSJ17u9eSATv4j/A6qbf7DbPDbCfxQCfYyS0NjsXh93Pb46uQl+WgN/nr47uw9GfZLdOh9AUIhOnS9F+KA4nGs7JVHs1ORr7WhAoI8Rlu5OnLtQgarm4zA1FEv6L9BjUVIKGy7v70qInwGxe6AjV1y9VxgGaQMV10oyboR3SW9KNkFcbh4fvgW+vr7w8fEhi5IIUpRUIEWJIAiCcBZjQDLSohcgr2zdNa+wOos4uATRP5hCebKx+LK7EBKEI0hRUsb188PfAQDot/T3F7bfTIuk3/SbftPvG+G3MSAZS8flYkVaoeTnpQn7+IJ+R/ezvYwWp+RcsvSnx2ZhemwW4kPSsTglB8aAJCwa/XdMil6AuYlruSVDLsfcxLWq+a1IK8Srd32NSdELYIUwYGXBDlg6xoAkLB2Xy9cwKcm/dFwujAFJMNUXoKy+AL+49XVMil5w0e1wsfLAlsZLE/Y5LQ+rS7ZJrzEgSbH+hHPJ6OhqR5O57pL3Q6Vyin9Pil6AV+/6WrFNleRk9y1OycH02CxJOn2pn8vx+8uydcj69514r2jhVfH80+9L/9vZ/iq8AzMk7zlxOuzZvFxy7vvuvwCAvKPHAQz8OPxq+U0WJRUuh0VJbZG9+Hhc0ETFvT7Eu3jLz4s3qWSb3DHfZbXra1pNCPIx2i0UFUfZifQfxddCiBG7QajtTSJ2MZFf48iNQr7+Qn6dvHxyxC5K4nqRpw1IXczE55TcRHrLt2djTHW3HnlYW3H55FGsxOtwHMktrltxeuJ1Rmp1qQZz6VJyCVOrHzm91ZcjlHavlyOvb3H9ietO7J4m7w+OzokRL/wXuygplc+Z509pjZVSHkqotau8b8ld8frav+XBORaN/jvOm2sxYvCdEhcp8ZoJcf23djbgu7P7MDLoLoUNU1cDQJ/SZ9dUNR9HhP8oaFy1kkhuLEy9vK70XqHYc2KDbX3PJkmds3DdJdWf8nenktuZo74svoe1QWWTIOPFulENhDyszliACPZvQNn1Tu5qKKYvERnl7zg12HMKQNVFkCGXV96nWfs3m+skodL7i/jZVHJf7u39qfZ9UNvGgb0bxfmKn3tH3xtH775rNT1H9ayWntK3jqXD1tYC9t9ncb5K7SOXWelZVntvsevjQ+7lESxZGXpzfb1YyKKkDAVzuIKYGoqQFDbFbm+FSP9RPNpNXNDEXgeiSi/hpLApivt5KF2vdB/7kIwMupvv1zA3ca3di4gNUE0Nxfwj7UjexSk5fDdy8UsFgN3Hk0VFyyl9CQbvcIyJeIQvdgZ6XlYWBxtiTon5NdotLXwjxjERj6DuwimUVO+Cr9agOPAW59tkruWLb+VKjKN8nWFKzK8BgO/MLi6fn9bAo3rJX4Jqcst3emfp1V04hRGGFOSUvsSDM8jbzBGpUbMkayPYXiq7Tet5OGC2ueelRlwmP20gMm5a0mu4abbgn23+ODdxLVKjZqHJXIt7hv8K581n8OaeTEl/YOdY1Cnh49vzLDhCrT8oHZfvb8PWkMiVq2H+CWjtbHCYb3xIhmq7JoZm4GzrSb5fT2bcy5gQNQem+oJL1r+rm3/AIG2gaO8sYeDJqGkp46HjvTR+AABLdyfyK/6Bm4eMw3dn92H44NH9Sp8pnGxzWQAYFBIIH48ABOmihU18bQveG9ur4erixgdgwbbNYcVBRBhqm+sqKbjs/rL6QyhvPIIYw1gcr9sPwH5ygf3NAj1cLJdDHmc34FV61sUD0puHjLvoQCuAc5M54g2ZPd198UTye/hLwVy7/aTmJq7lfZBh1Ceg3dLClSTxeq7FKTkX9U5jEeqU3pG9PX8MR98H+WTmyKC7UVQlTBAlhGTwulucksMDnqilZ2ooUn0vGrzDr9n01L5Te05sUE3P2bZl+1iJn53MuJd5ABqLgjLHxjnSLTika4LF7y25ctXe2Sz5Fo2NeBilNbvt1sMSlx9SlK4gLCrUEJ9hMAYk81kV8Y7d/aG88QiCfUdIZm6dgUXkYQOqxNAMnDefcfixMjUU4+bAVBhE+8CoId4Ph5Xty7J1iAuayMMtL07J4VG69F6hPJKWMSBZolQyS9cP577m9wLSRbCmhiLJ/jtN5joAgME7nMtS0XgEciL8R+FozRf84y6OhqWWLyCdZWKLvxnigURZ/SHsObEBnhodfqg7INmZnZVP7xWKdkuLXR9wJLev1sDvYW3vpzXgy7J10mhkttCzRn2CnZVFPrCZHpsFT40OZssFfr/eKxTn2k7xF/gPdQfswtyyF79caR4b8TAy4152aN1j50wNRdB7haGwcievB7lCoVTfRn2CpN+KZ8DdXD1QWrNbSMu2J49Rn4Amcx0s3Z3Yc2IDAGWlnQVcOG+ulRxX6g+O+gkjPngyAPA8AaF940PuxXlzLTSyGWMla6Fau4o/mPL3TH/7t9ZNxwfjXd2dOF63H22WJvjZ9rsyeIejxVzPLXp9pS/ps3dCWvQCBOuGC4MeW1hwFtBAPgsrtyg5skIvHZfLn6FX7/ra1lfVJ6umx2ZJZM24aYnEU4DJvDglx27j4d6Qz7RfLnksXR3YbVpvNwgXW5HUEHsLsIAXcsXZVF/Q60bS4vTiQzIUN6pliN8tk6IXoL2zGZZuM6bHZiHUNwZtnc18YKz3CoOpvkDSpyP8R6HZXKcY9IIFBumvssTqve7CKV5uti+co+ePwd7zat8H8XUjDCk8vemxWWjtbOBh4UtrdmN0+Azc/ZNFqunVXTil+l4EcE2mFx+Sofqd+sng21XTE29v4KhtLd2dkmtLa3ZjTMQjPEKlnI+PZSPCfxQPDS/G3NWiOJnAJgHE7/0VaYVoMtfiREMx2ixNPK09JzZgemxWv/esI/oG2dWuMOWNR6B10/EHzKhPhJurB4qq+h/iM9J/FLq6O9AkGtA5g6m+AD/UHcBQvzhMj81CsO8IxT1HxBj1CdC4eDg1G8MGbNEBt/N9TgBhlp198N48kMk/TL5aA5ptyo38Y/PxsWy88O87Ud38gySPkupd+O3eScLmh7IBovjj5acNhNZNh6SwaRJfYGNAMjSuWgzxieJ+wmJZ1fJlVoyTjcV4Pi9Jco7tQbK+6JfIKX0Jwb4jkBj6U8U6YuXz1Rp4GOYVaYXcN19NbkCIyDVIG8z3HgJ6lEMx4nPCXkK/wtGaL/B8XhJON5UiNWoWL9PNgan4oe6AoqxitG46/CRgNLfKPJ+XhN2m9RikDeaDZk83H2jcPPB8XhJONhYjKWwKd3dhM6zP5yXhXNspxAVNhJ82EBpXd8QYxvJ6YDNnjupbvHmmvI6U0HuF8r7Bwn6ztSoAJLO0G4qfkigwav1B7TiDDXDYwIAxIWoOLN1mNLRVSq5n5Wb1enNgql2ZHLU5U6IB9Kt/A8IHnbVRTUsZACHSIdujx09r4Bak/tCX9ONDMvDwqJU423oC581n0NbZjF/E/4GnxZ53S7e51wmn6bFZkjpgocbL6g/BbLmAH859zS3qbI3L9Ngs1X7VZmnCb/dOQqT/KLs1BxWNR/rs0jWQ8jSZ67glZlL0Ajw7dgffCFUJS1eHYv/rL+I+If4prNyueP2eExswwpACnTYAeWXr4Ks1IM2mRIkHtpOiF2CwVzg0rlruDiifXFi1Lx2+WoNk37Ol43Kd2g6B5WXUJ3Clhylljp6/3mDfBwabbGGKghIaFw8M8lSeNJWnJ0Zt761rIT21iVutm87OsthbenJY2z5gU0wAYcL35T3jHCopFY1H4KnR2T0/bIJI/mwG2fYnfPNAJsrqD6Gwcjt2m9ZD46pFXOBERAfczq+dl/hnBHiFIS5oolNlIC4OsihdYZj7HRuoRfqPQmtHvWR2Qb5viXw2Xn6eWQVM9QWKMxzy68UuDmzmIylsGsrqD9nNcsj3O2GyOCuvOIyxeB8a+cda/HG5GN4rWoi5iWsxL/HPaDLX4m+Hn+EufwD4DOrilBzcM/xX2F/+ATSu7tB7hXB3r6kxzym6RogxeIfDYu3gCi6b2QKEGUSxFY3V1eKUHIklZpA2GOfNZ3jZxT7nbI8VhlzuJnMtly8z7mVVlxdmmTvdVMrXYbi5evCXv3iwkBiagTPNP3BLBaOhrQrD/BP47BWbpa1tPSGZHa27cAoWawf/29LdyWfxiqp2IeOmJTDqE+02b2w21/EPpNZNh3a3Fjyfl8TX7rG2U6tvAAjSRfM+tzglh/tyd3V38Fk9to/SWQgWxwCvMP4siN1QmRtkyZnP+WTCCEOKal9wBqUBTnxIBob4DMNnP/4JiaE9A15mZWYKq9z1hl0jblcx02OzeBhsAP3q34CyxcfUUIxU/1EwBiQj1DeGu3qpoXF1x5iIhwEAYyIellgqnU3fGJCM1KhZ2PX9GwCE56u09t+IC7wLbx7IxBPJ78FPGwi9V6id5TU64HbovcKgcXW3c70Tv4/2ntgEL40fzl2ogIebJ1akFaKs/hDv36b6ApgaijE15jneVuI1NWyfnEtFfEjGZZdH4+Yh2aOnttXEn1dA2NCWzfYrYQxIVt0sub+I+4QcudUe6JmM89UaYKovwN4Tm7jLoZgYw1icN9fC0m3m7qmLU3L4ujUWva+/65TYe3dqzHOSTaAFRan3549NDCp9HxhKky1N5jr4uOsRHzwZpvoCRPqPgsbVHQ1tVarpNZlrVd+L12p6gPp3qq2z2eF3wJm2ZX2EPS+O1rT2Rm8WJWNAMny1BhRV7YJRn4Dq5u8Vn2XmTUNWpcsPKUpXGPZij/AfhfiQDAz1i7N7qTu7RkltzYPa9WoIg84ARauWeI0SmwmTP5S9pc9eNECPW4ncxaEvbhpqiOuDDbR/cevr3AVFLDcznYf43gQAko9PatQsVfcphp/WAI2Lh93xQJ8oVYWPfcTnJf4ZZssFmLta+AaDYoWDuQbIN3oVy23UJ3If7+fzkrgyatQn2O370m5p4XWtJvek6AXQe4Xh42PZdi6cTJlmH4naVhPMXS1oMtfaBRcQr/mwWDsULY9y1yKgZxBksXbwwZp4TV9DW5Wi3Ayxy0VF4xGMDLobftpAFFbuxPhhs7AirRCtnY1o72pFQ1sVAKFvM8WlvPEIhvrFwahPdHqmsS/IlWdA6Gc/1B1ASfUuiaLErIhqKLUrQxyMhbmrAX3v34D0g84+4iXVuzA24mHEB0+Gxs1DdV2kxs0DOo8AWLo77dy7AOEj72z6pvoCvHkg024xfn75hwCEzXlHD50OX60B5Y1HJK6lZfWHUFS1C/cM/5VkbZd4PQsAHkxikDZQsl8Ye0+xvHtzmSmo3I7ksGnYefz3MOoTew04oMbYiIcvqzzM0sHahtVJ3YVT0Lh54KGRv4WnRufQcsEswM6u9XAGtUGkGuy9Zek28wkVQTEJBWyTQaG+I3DeXNtn66fapsZKyIPLMBfHncd/D8C550/t+8Bg3idiS9mXZesQaZvoTAqbhvq2SrR3taLuwimH3xu19+K1nB5TjuTfqf/WH0S31aL6HXAW8bvWmXVO4u+I2DquNhnAJov8tIFo62zm34WGtirVYCdsY3bi8kKK0gDQ0FaFoX5xGBl0F8xdLQ4/Ro4Qv1CcmSG+WNiLzVk/bvnAhsnMZgDliC0L4vVNzmLUJ0LrpkO5bVZZLXgGw2LtwI/nDiLML6bPg+Mmc53EesKobT2hqvApKYyOXtZq5yzWDvh46DFIG8yVbLazO/sAs8EiC1bQm9yR/qMQ4BUmsR4yBejjY9mKG9D6aQMxMuhuPnvKZrgYYpcIg3c4V3QmRM0BAB7gg0UYYjOJfgp9Q01uVk/idX9ixAoyk49Z6txcPRTX9bH0LhXxIRnw8QiQzNbHh2RgkDYYSWFGiaKZGfcy9pd/AHOXch9Sa1dAaJehfnHYKlrLxCYg+qv8GfUJeCA2C26u7gj1i0Gk/ygcr9vPFzez+vbTGqBx8wAswn3N5jr4ewbbpcfWER2x9Vtn0pcr1myQwSZoiqp2YWrMczhvPiNZk8PW2xi8w2Hp7sSk6MftLEpmywV8fSoH5821PJgEg1lBJ0UvQFzQRK7UAj3Pr9ZNh9bOBqF/dnXA3zMEGlctjPpExAVNVFxb2GudByRfdnnUlJwmcy08NTrEBU4U1g3KnqdB2mBurW9oq+bBERjtlhaJC3hfLTSOLEpyq7nGzQNJYVPwQ90BNJnrEBc0ERpXLf5zeguGDx6Nwd5DAQBVzT9gf/kHEhc6P20gPDXqkxF9JcJ/FF9fC0gna5x9/nr7Pih5nwD2A/gRhhQ0mWthqi9QTc/Re/FaTQ+A4neKWUWV0msy1yq+a8XjE6XACc6s1RavIWbfvJLqXWgy1/JNslnUzTZLM/LLP+D3pkbN4u+noqpdSPQKtQvo5IxLKHFp0LA44YQUa3c3Oi2duByx000N32Bk0N24ecg4lNUfQpmCa0Nv+bLzebYZFsGEnSS5wqpwfW+pKl8nHC+uFkzBI4PuRnxIOoqrcx2mX2wbvKdGCYMeAEgIScdQvzicbiq1u4cpkPEh6TB4R3Clx5FMYkwNhVwxsgLcxP5D2wH+Qs0pfRFl9YWIC5qI1o56XiZWf0Z9EgZ7haO4epfDfFleiaEZKK7eJXykXTwAWNFsrrMN3JNsrhZLcbTmC76YeH3RQsQHT4bWTQdTwzeID0lHxk1P4+CpLcgrWyc5pyb39u9WIkqfgAhbWRNC0jFIG4zTTaUwBiTxtUPrZYPpugsV0Lh4wKhPQHH1LszjYalf5NcmhKRzmbcey8YDIhn8tIEiK6hVVCuC656nmw8/pnF1523RE9mxUKS4WhFv6w/nzWdQJrK2WiG4q/m461HYuNNhfZsavsHNgak2t1MrRhhSbC4cNVg6Lhc/1B3A1mPZSAzNQFd3B0wNgstVUtgUXg9xQRO5fEwBFNzlrCK3O6Xnw/EzA/SsJaq7UMGPFVfv4s8EAEk7lNUXIilsKq+HNJsL4rGzexEdkKTYrg/Y1n3tOL5K8lwCwqCtL/07PiSdW2RGGFKwofhJpA9fjON1+5FXtg7zEtfCzTZrz9LQe4VKZr/LG49gdPgMnG87I3HvAoATDUW4c+hDTqdfJnJ/ZH0w46anUVqzG1Zb/TL3G6UysbVLlq4O7K5ejzzbgCk6IAlTYn6D2lYTPv/v20iT7aXD3g1sdnqrbSIqQfS8mhoKMT32BQDC2qBgXTQa2ioRYxC2lSg58xlPLzogCZlxr/D+qEaZbT+myykPUx6bzDWwStpPyO1kYzHyytYhLXoBbg2+G+5unvDTBqKs/hDWFy2U5Cnu5xpXLVjfZ+U923rSrr8qY7VZlOz7MGsr8XM12Cvc5iL7GcrqC7nl+ZPvX8cDsVlIDptqm7Sy/xayQCHFMqVDfF1f5GeKEfsuRtjed03mGqefvyW2wEby7wO7jq3hFd+XxkPF/wFN5lqMMKTgbOtJlNUXqKZnlPVD8Xtx0jWcntp3ylF6ZfWFIhfAJJTVFyLNtp6NtVF54xHuAs7eHYmhGba12hUweEfY9Z8HYrMw2CscX53cBKut7SpsY5kJUXPgqzVg5/HfAQC0Gh/EGMYixjCG97M3DmRiSUoOBnuFS5QxpffbpRyj7vvuv/Dy8YGnlxfcNe5wofDgAADNyPCQgZbhqqS7uxudnZ040Hjp0y6uzkVq1GwMdg3n1g8xgT5GrBSt+QEE16Q3VGbniqo+wdSYpZgQ9ZhiehePC/8XcwtLjZrNP2aO5GUPvPg8+9gC0o/D1mPZ0HuFIjPuFQCCWTmvF7NygkzJ+OzHtzE1ZinPr6z+EB9QzEtci3mJQnrMpRAAth7LlpwT36NGWX0ht+atTCtEVdNxPjO1vmghlqTk2KXHFJCVaYXcx5nVocE7AuOHzZL4PxdX56K4OldVbhapaaVorcX6ooVIi14AH3c9/AICJfVeWLkdW49l87ySwqbZZmlXoaxe2n5ith7LViwPACSG3sfdIMobD6O1swF+WgOazHVo72qFl8YPK20zYywfpjzOS1wHs+UCTA2FCPOLQXRAMq87Jre4D6jVd3F1rqT+msy12Hn895I2Uior6ytK54z62yTlEmYYXdAf/LQGW7CVs05cLeQhb9vCyu3cP1+pXSP8R0Gr8UZm3Cv8+WF9pa/9m/U7JZbY3G+X5SXZ+sRarC9ayAcCbOacTeCwcL29Pce9pb/1WDbSohdgTsJbfL+SSP9RmJe4FsP8E/DVyU2IC5qIJSk5kvekxlXL13WI3XIY4jVTctJsQT0A4R3HZBHXT7RoobZ4MD0vcS0amqskzxWziJkavnGqLi6nPIJSUYkJUY9hXuI6dHV34j+nt/C+E+w7AmnRC+CnNaCx/YwkLfFEinK7ush+O49gUerpw2LkbVXTUoa3RG6NYhnZ+zY1aradHNG29X29B61xXn7xtysz7hXJ+6SsvlD1+RN///ae2Kj6fYhWiX7KnjNWX+wbAMBhemrvRaZwXovpOfpOOfoOsDEKu0+4fju/l/Vx9n0BwNMors5FWvQCaFzdJe8WVh422eDjEQBTwzd4IDYLvloD3jiQyZ9Vs6UVbx38ueR9x96DX53cxCecQv1i7MZZakFO+stNIYHQ6XTw9vGBu7s77aNkw6XyXANtOKsAU5TeKVWPnkUQBHEjsMQWslY8ycGOW7o7oHH1wN4TG5EYeh8A2FknxSGflSZ9ektf5xEArZtOYm3oscK9xK3y8xLXYrB3ON9HqbzxMNxdtXjr4M/xpG2Dxx6LUrJtI9qNfMATYxiLqubjSAqbxhVNcdrRAbfb1j19wsvF1tep7UnEysTSf8vJNUuXS56q5uO8vcQDcba+k1mMWHriQaPc2pwm22xTfG1fSQhJxz3DF+GzH99WsCgpt5VSXc5LlG46yvraPJmrkp0i2VbVb9kJQo0HbC7ADW1VfB+8KTG/RqCPUfJMsz5utQItHXV2/RO4/H122pC/kqKkAClKKpCiRBAEQRAEQdwIkKKkDNUCQRDEDUpCSDqWjctFQkhPdK95iWuxbFyuxI2LIAiCIG5EKOodQRDEDYpRfxvaLS3c1SmNh1vuRHzwZMVAM32BudQB9m5Z4nNylzuG2AVM7PfPZGVuX2IXFiWXPPlaRnn+cvnk5wDH60QJgiCI6xOyKBEEQdygRPiP4gvEWXS9kupP8WXZX3BzYCqPvNYf5iWuhadGh/VFv8Ru03qMDLqbpyc+l1P6Ig8eICY6IBn3DF+E8+YzWJaXhOLqXRgT8QgSQtKREJKOMRGPoLh6F5blJaHd0sL3FXOGJSk5PP9leUnYbVqPhJAMPBCbxa+pbTVhWV4SluUlYX3RL+Gp0fFF1gRBEMSNAVmUCIIgbkASQtLh4xGAJnMdV5LyKz7kFheDdwTGRDwCAE5HrRPD9hEpqy+An3YI/iTTYAAAF55JREFUACECYHRAMvReYSis3MktPkpR9vy0Q+Dm6sH3n2IRN4362/ieKuw3C8nvjLtgtGiPNpZ/Xtk6xAVNVN2It8y2Z92YiEeQJgoTTBAEQVzfkEWJIAjiBiQx9D54uvkgxHcERofPwI7jqyQKQF7ZOuw4vgqjw2dwa09a9AIsn7DPKUtTReMRDNIGI8G2LxogKDZ+2iHQuLojxjAWK9MKsTKt0C4imSP0XqEwNRTB3NXC9+QSK2W9wfbrig64XWIhYtsZqMHyVNoQmSAIgrg+IUWJIAjiBiMhJB16rzC0djaguvkHZO+dBIN3BJ4c/XcAgtWFKRHZeyf1y4Ky9Vg2jtZ8gcy4VzAm4hGJIqZ100Hj5sHd3ob6xdkpX03ms+jq7kBc0EQAPRtIA4Kyk1P6Eob4DMPKtEI0m+v6tH5ofdFC5JS+iEHaYK6skVsdQRAEIYcUJYIgiBsMg3cETPUFsHR39um+vLJ1WL5nnFOK05KUHET4j8KyvCTsOL4KU2OW8jVAFmsHd6mTW4cYzN1tsFc4VqYVYnT4DLR3taKhrQpp0Qvwi1tfR2HlTizLSwKAPkfqK67OxfI94yRrkBxZtvy0Q6B10zmdPkEQBHHtQ4oSQRDEDUZe2TqUnPlccsxPa4DGzeOSpJ8Qko5B2mAeKKK4OhfnzWcQ4T+KW4qccWHLK1uHrH/fiWV5Sdj1/R8ACO57kf6jYO5qgamhCABQ3ngEWjcdjPpENLRV2aVj8I6AxsWDyyYPic7c8XwdyCR2HyQIgiBuDEhRIgiCIKD3CuWKjRrOrlESK0ZAj+LUbK7jSgk7Fx88GT7uepTL8o4OSMaycbncCpUYeh+6ujtgaiiSKEYAuDWq7kIFmsx18HHXIz54Mk8rLmgiV6yKq3PRbmlBatRsfj4hJB1D/eLQrKIERQckIylsCs6bz1AgB4IgiBsIinpHEARxg5MWvQDBviNQVPXJJUtz5/HfIzPuZaxMKwQghNtmeyWtL1qIJSk5/Fxh5Xbkla2z2++osHInxg+bhaSwaTBbLmDH8VUoqy+wRdIzYKJxHiYa5/E9lsTR89h9ACT7LAFC4AZx/oD9Xk6BPkbJedpHiSAI4sbDpfJcg3Wghbga6e7uRmdnJ94pzRhoUQjixsRqBVxcbpx8rzDRAcmYHpuF787uw81DxqGk+lPklf0ZsALGgGRMifk19p7YhJLqXT033QD1QhAEcSMybchfodPp4O3jA3d3d7i6ktMZ0BdFqfB1hE3OVjz13OcNeCpJdKBqC+aPLMeCc88gUS29qi2YP3In0o++j/tDlY6/BmTdhFMLZWlfDH0oQ++KkhWw4hIOHC51er1lJ2p2F/6/S5W4g7JYHeTFZHJGFrU8WPoOZLAqdHlJHTgjRy9l7HNbWnuylch1rQxML7b/qpRfCZaHokIjS0d8XrHdxfc7IUOf+rTScVEejvJWO+eovKp1L5fDKuviLg6udZQOQRAEcb1AipIy/bIoFb2mxxR8gcpnnY8wZE8ttj12E3Izvse7DwT2HN36KBJ2TUHxX2cg0MHdF0tvZbiuFSW7AWZfFBSnMrgyipLitU4qSqoKlrNcBkVJsSzoo1wDxRVW9AGVfqygEPSmWEn6CzvuIB35/WoKu91x8TH5eXHm4nbv73UO5JDUgwMlSolrRnEnCIIg+gIpSsrYaqEAawbrETZYj7DXXseawY9im33gIHWqtmD+4Ecx/zE9wga/jqKqLZg/+HUUAYIV57Et2PaaLX12HIEYk/FT5O7ah1qeUC3yd/0L6RnjEIhabHtMjzXMRbzwddv9eoQ9tkW4x5Z2re3ebY/pMX9rrUgmlpczCPezPN6S32i19vxITygct8qOO3OPHAfXiNPl5xXyUEvXbqyjNLhyRsa+YhuEyeuqz/mIrr2k8onTl+VhV9+ia+XyW0X3qV3TF1GU8nKqH8qPq/RReXntytnXPPuLrHxKPw7vlR9z6YOO6WJTAtiPLE9VpR8KeVjV8+bpyM/LLna6StXSk4riOGHZMRcXlR9nZSIIgiCI6wNXACh67W6sXvYFKs81oDjqMFb3K6l/YeTCBlQqudvtmI/cqO9Rea4BO5dlY8prwoLawDunIH3HTuQzpaxqH3J3ZGHBAzJbUtUWzJ98GG8fbUDlue/xNuYj4bUCIGkcnttRjlMAgHKcwk+BE+W2e8qRu2ycuuufjKLXbsKiWKEOKj/Pwu/umYUdXFm0OhgsiI/LBsvsuHywC/E5lYGLVe0akSxK9zmF4ghOQXaFcl0UtvTEs9nivPqaVp8Gwv3FUX3b5JDXEx+7ihqfp9HHurQzmCi1CxuY234kChocyC9SDuRiyS0OSn2x323nANVBuhNtrVZGR1hF/5AoZC7SsknOsZuYUtXHPJ1B0bLVV6wKdaLyDlP8t6PrCIIgiOsJFxcXuJDXgB2uQAHyV/4Ubz8iuKAFPvAknutXUj9FeKjauR7lJ/GRd5G+cp9g6Qkdh/Sp/8Ipm0JS+/VOReWm9uudyJ06BWNCASAQ9y/MAo6VoxaRCJ+ajfxCAFXlQMaTSD8mpF20NxvPpTrrGliA/JXouT7pF3hryieoPANoXbSyQaSTnUh15lichoPBn9r9qrK4SAd9/UbJgnURyfXGQD2TdpYKFUH60/YOcZCGnQVFfH0f2kX8olO0dvRBLHn5XRRPXDocWpQuQ/qqz5lKvtzqdJmwa3f0KL+K/dSq+E/HlWVT2CXpOWHNuyxWZoIgCGKg8XDRcUWJdCUprqgqx9FLktStiFBTlKZGIlzxhOB+t3pvAYACbH78X+rKzY75SGCud5OzgR3lOGW7/2h5LWq/3glEJiMi9jAqqmpRccyR4qbM6snM9e4mPLkTKK2oQ3K7ERfOX5pNGAFc5GCvl5sdufL0m6vtibENJMWD2P4M3JyyUlyKAaHMIuGUTHLLm1gkJaVBNPCV52FXV73Jq6CQXGplxRFKdXApXb/kVqornb+z8sndNhUtki7S9nVoKWLILGa8Uzgqt8IPQRAEcV3g4aJDrPeDwrokNze4XHXjvoFFg9BIjLzcudjc4wIBwSUOANuuMDDyVuDxfShKBVZPfRfFahHulqkEXrhzCvChkH74nUB4FJD/9T4cxRT8tk+K0k/xtigCn9VqRVdXFzor7sQfk4Pw82PzcXNnJ7q7u4ULaj/FssmV+FnxPMQBwNH1uONvYdj1u3tR/e6t+CB8N1beMxjAOXzxm4mo+sVhzB4p/jf4uT0Td2PlbYd4epDcD5S+eyvm4W/4z3xgY8JGhH7+B9wdCABHpH8fXY87/hOGV37MA55l10g599nTyNidhl2/uxeDRcdL370VhXccxuwgWblqP8WyyXmY8Llyeoo4uKdUXDZRnQ2W1eFgpXQldTFKIU301K+8HJwj2JjwC+B91ga2OlkWi/V2bRmGf6nVN9Tbf7C8b/TUvqz9HZSr9lMsm7wUNzE5naibnvIJMiZ+8zQyTs2W1JWqHEzm94F5/7nddo+sf4mRl1G1zH3k6HrcwfI/uh7LKu/nz4FaOXnffxQ9bchK+tnTeA3/i5X3VNq1ux22Ot+jKtxdeEWhLs59plzPpbLnWHqd6Nm3K1/PuZ+dmijtFyrllLRpkEo5Fv4Nu8I3Sp9/+bN6dD3uePQt1RpA2ion+iBBEARxreDq6gp3d3d4eHhAo9HAxdWVXPBEaIBkjFn2L0z5sAD3P5uM2q1vYTWAty9pNtnIL3wGiUmCSxyWfdHjXpc0Ds/hbkyZDKS/871ipLvAO6cg/fG3sO0RQZEpek2PKcfeFSLjhUZi5LG3sG7HrVjwrHAtsnYCGa/1IWqetA5QtQWPj5yPuM/O4VfxURiJX6H4+/9B8qgu1O78JVK/mIy9z2uhgQe8dDroAMDLA9Bo4aPTCf/09IFOpwPQDq0G8PDSQafTIfoW4MV/7MbMO6fAUPI+XsybjNUvRkKHwzy9sOGTsWfJLpTNWIhbz+zER2uBp/6ZAp0O+H+Lf4Gfffojpv8qAXWf/B3roMFqbx10OgB3jsdTj87Ai/e+gb1Gm1wydDN+iaeWzcCbeyfgjfsMAIC6TxZi3tpn8MESHXT4CUZiKT7a+3PccZ8BhzctxZ5738BLKukp0qKFBhpomVwiJHVjk/fz/z6Ix+PrsOsfbwGaN+CjU8urGEdEdcH4yfDJ2PPFYbTPSOmpa29Z+/RIAA8A8OqRTTdjBVbvG83L3NOWKer1DfX217X0nGv/ZCFSy+ej9FcJtr4wGVFRyvUCeNn6DADdg3jpjT1IZX1FUldCm6UuicMHPy4E/hSNjZEHbe3pBQ/EI9qoQ6T3fUj7f3/HVw+vRUYwcPhP0fjZ929g7xpRPTE5dBNwz72jMe9R4Kl/ltmOS8uPMzux5P8twc3/LMPj8cL1kn6CZzBPte165/CfovGzN5/BB/83Au06HQxeHra+8iPeGT4DaxZvsdUja0dRH7vz51h972jM2zS+55qStbhjmQar/y8SOl29Xbvb0aKFRpRH3ScL8Vu8wp+Tw39aiNMKfbrdUwN4iNqOSSh5DwC6n8QDy0pQtiQFt57Zjf/Lm4x7XoyETleMd4a/i7D/E9oJonN3nHkGeNB2D4DD37wF3PsGfqLToUzc7iXv48W8Z/DBWh10eBBv/figtF5hK9eZOqQt+wylLQ8iIxio27sHexCPeez5vnMxSn9crFw/Z3ZiyQo4eD4JgiCIawnmbufq5gaNRgN3jYai3cnQAEDis1/gucF3I2wlkP7Ou3gOOy9tLlOzgLV6hO0AMPVdFP9VbBlKxphlAFb+FOl3qqg2oTPw7uflCBupxyIAQBZ2nmPhw5MxJvZfWB37JN4FgNBIYAeQnt234OKJz36Ptx+7CWG2qdL0d77HU0kusFpH439K/oIn4iMQCwBYii1VDyOi6mO4wR1aHx94A4CnO6DRwsvHB1p3wM3DC94+PgBa4aEB3D194O0D3PmbI3jjiVFIHf7/2zuf1zquK45/773zJKtvXTBO7AQ/RCkoWaQG17UcCllUIAc3YBNCC4WmaanSgBTFiaG7lkKhtWVi9EpCvTBddKOmTeXSpi4UuigUnl2qVdJFF4Y+XMv9CzRzp4uZM+/cM/f9tOTI6vlsJM3cO/fcc853zr0zerwVAMDq5j1caAHoTlfXO/byDWx0D+P87GUAwML6FpZPNwEAp96+idUjZzF3FVhYb2MVv8PUTHFtYB7PXwT++fQLONZs9pnpPJa7N7F+5CTmVujYJWx0l/Ecne+0sXSCzpfzBYDuB1g6cRff6i7jOXSwfuRneLJzHefkm7uZaTh8hHfOtNjn3Rax1rmOL80u4tbrJ/HW1BbaL81jefMSjr/YwrsAVtfbWPgDMNNs4uO1w/j501tov8TieLuDd3EJG6dLn5ccO3MOCytL2Px4C0+Sr2emw/hUHEIDAA6RzwCgiQtLl/DOiz/ArTPXcY7Fsq+/Md03/p9pzeJZrOBrsw1sdH+Cte88i7lZVLFst+qxmS6MKnOmnNfLb2B15Sx+/McXCl912lg60SrfJCxirXMRp5oA3r6JOyyeq5v3iuOtV/De5n9wvIoDxfI+/s5yknzw5bOLwO+fwfPMv5Sv3P4iF5u48MM2/lzmSeGbuxF/j8adtcP4xewW/tVl8T7UKHU0j+XuPSzfvorjs+exunkPr3/hEBpIWO43ceH6FqaYrYWPbpT5GYu7YGYa7up5zF3lBz9iOlnE2tfr/WcKgQexAyDuAwBOX8Tf1l/FydkWAKZ9zGO5cx9LJ3p6qc61wj5cj8eCuBf6OhWZW5BbtZxgeTSE7a0/4dbcd/Fe33uLoiiK8rhR/Me1gbEWtnybpG+UetS/R6lzGU98BfjtoC+LHYfOZTzRfmrPvxdpr8jLzwrk+/EDzLev4OgC8OH2m+Ump4Nrn72Go/+4ga+O+fmsSbj/wRX89YtvPpKx9gU1fyt7wu0rOLrwIwBnce0R5TIAoPsrfPuXT+H91fj//965/A3cfeUR2vOpch+/efXzeCN4ZvZ9zX1FUZQDCm2OdJMUYv7930/yX3/zc/jeh3Qo/KzOQ/OYb5T2F8WX9EZj1d3Aa8+8BrwffoHvntry07/g9FsHOa4D/K0oiqIoiqIcaOpvlBRFURRFURRFUf7P0U9sKYqiKIqiKIqiCHSjpCiKoiiKoiiKItCNkqIoiqIoiqIoikA3SoqiKIqiKIqiKALdKCmKoiiKoiiKogh0o6QoiqIoiqIoiiLQjZKiKIqiKIqiKIpAN0qKoiiKoiiKoiiCZDrPAADWWnjvYYwBABhj4L2vdcjzPGgDAN57OOeq32VfYwystciyrDpnrQ3aWWuR53l1To7Hx6Lf+XnqQ/OgczQ+taNj1HZnZ6eyXbaV48uxuT3UL8syJEkSzI2fp/nJfvST2y/7cT/Q9amPtI+uSceoHc2fz0u247GN+ZyuY4ypYkrXpzhTuyzL4JwL4kzHZD7RfGJ5FvM9Pyf95Zyr+Y3Pkfua2yfnz/vK49SXz5euHbOTiM1NxpfbJXOXz5NDf1tr4fO6T2RecwbpP0ev7Sj6h8FQ/Rsb+jXQv7PVmP303+88zSNHHvgr8GEZCmMN0jQN7jdS/z6v5w9H6ph8MY7+aYya/i3rl5XtLYtPVurflfrP8up8Tf8+hxtL/7Y2R8Ltgv4Tl9TyiefMgdO/7a//3Nfv70P1b4t+nJ7+XaRteR3KD+pbmjVq/adc5b4Yt/5nPtuV+k8aj+mf+6Omf/TmPEz/49Z/7z0SN1n9Rx7aL/vxeVLeVPUfwr481E2s/ltj++rfDtC/tba6flT/aaEHZ93Y9d/A1I5Pov/EJfB5WFcD/fsczrp9Uf9j8X3Y+h9rO2n9l2M8rP4nWv/bwet/Y4o1waT6p/VEX/1vb2/n8qR0jHSi9x6NRqNmEDcgECQznhxGbaqFTZ4jSZIq6aQzyHky4Px8zDHcOXwjQ8fIFhkcOW/pYB40GYiYP/kCihIm5mf+O78J0c2Fb1K4TbEE5qKV/uBx4DHkf8duDtJHskDJeXOR8GOjxIo2skmS1Mbk/fi15WKN+5/EOSzXeX7GRMZvktIP/AYhz/M+FNvYvHmM+GaY20jtY+NVNubhTct7X2mM39SH+cRYM5b+ja3HUeqf2gT6b/T0D2ZKTP/yfC0+uY/61nsPl5RxQa9A9dN/5rPgGjQH8sNu6d/nPoyxKxYctCCm/LWuj/59DlP2j+rf57Aj679XvPn1qp/YHf0bhL6TczKm2MgeCP3bsA/f+BrT2/SMpH/H9J+x8RJXXif0j/dZZVvSSJClWXEN37Nt1PpPmnmY+p9m6a7Vf75ZGqWm8BiQTwbpf5L6b42t+XOU+u9sb/Mg63+lf5aX7PlVoX/SohH3StTrP21iYvo3Q/Rftc97x6o4MjtI3+PUfz6nSfXvrEOapYF/pf6tscFY0u97Xf957uxV/efjUttJ6v++WP+7wet/qvly7qPoHwZD9W8ePHgQzHKQ0/j5mDN5UHhbSlJpPA8qGc1FKROTJ4x0FDmZ2kpx82P0FIAnL09cCqS0m9pkWVYlCr8GD4Ycn/uMByrmK/rJx+B+4H7mApILlJ2dHUxNTdUWMNL/XHxSFNSeL+yl7Xye0jYuxGHxpt/TNA3+5nHulxv9El32l8WLiD1RkT6XAgIQPPXhN0Y+Jh2XNz5+o5d5y/vzXJR5SIVIxhdA9eSW8kk+IIhpPKZ//kZpFP3LpzMx/fvcx/OBnrwb1GIcxFRslKSmq7dGMf0n5VNAEz65k/rn/pPaS5Jk1/VPT0Aph5JGUiyoxVskY021QK4KCNsoUdt0J0VjqlEtYOxY+g+vxfWPXdC/fALO9R6MxXhs9Z8M1j9tmkbSv+3lQJaW+i83PZXNtlgEct15nyFpMP2XfSFuAaPUf1qQSBvHqf999T9m/aeNktT/Xtb/UfRPm5VR9U+bq0D/bAzuh+onehs8Hn+6Xpqm1RqiVh/ynk0x/dsB+q/iwpInsLG8N7nyzeY49d/APBL9G5jgIcOnWf+DmO5i/Q/1P3n9j52P2TiO/ide/7v4+t+5YnM8qf7pgWg//f8PAQwsleZkRYwAAAAASUVORK5CYII=;" vertex="1" parent="WIyWlLk6GJQsqaUBKTNV-1">
          <mxGeometry x="500" y="-40" width="842" height="131" as="geometry" />
        </mxCell>
        <mxCell id="Hxnug19n2UQT8viNkSG_-37" value="符合&amp;nbsp; &amp;nbsp;爬取价&amp;nbsp; （官网价）86.979999&amp;nbsp; &amp;lt;&amp;nbsp; &amp;nbsp;原始价 86.98&lt;br&gt;所以没走5分钟缓存，相当于用的4小时的缓存" style="rounded=0;whiteSpace=wrap;html=1;" vertex="1" parent="WIyWlLk6GJQsqaUBKTNV-1">
          <mxGeometry x="870" y="130" width="300" height="30" as="geometry" />
        </mxCell>
      </root>
    </mxGraphModel>
  </diagram>
</mxfile>
